<svg xmlns="http://www.w3.org/2000/svg" xmlns:xlink="http://www.w3.org/1999/xlink" width="500" zoomAndPan="magnify" viewBox="0 0 375 374.999991" height="500" preserveAspectRatio="xMidYMid meet" version="1.0"><defs><clipPath id="32df3fd218"><path d="M 31.832031 12.347656 L 327 12.347656 L 327 307 L 31.832031 307 Z M 31.832031 12.347656 " clip-rule="nonzero"/></clipPath><clipPath id="703218970c"><path d="M 93.558594 111 L 342.960938 111 L 342.960938 362.597656 L 93.558594 362.597656 Z M 93.558594 111 " clip-rule="nonzero"/></clipPath></defs><path fill="#545454" d="M 320.371094 164.875 C 320.027344 218.554688 288.617188 264.996094 243.257812 287.082031 L 229.773438 308.457031 C 234.101562 307.070312 238.375 305.488281 242.59375 303.703125 C 260.648438 296.066406 276.863281 285.132812 290.785156 271.210938 C 304.707031 257.285156 315.636719 241.070312 323.273438 223.011719 C 331.183594 204.3125 335.191406 184.453125 335.191406 163.984375 C 335.191406 157.09375 334.734375 150.273438 333.832031 143.542969 L 320.371094 164.875 " fill-opacity="1" fill-rule="nonzero"/><g clip-path="url(#32df3fd218)"><path fill="#545454" d="M 112.347656 280.761719 C 73.050781 256.695312 46.769531 213.351562 46.769531 163.984375 C 46.769531 88.542969 108.140625 27.164062 183.574219 27.164062 C 245.679688 27.164062 298.25 68.773438 314.886719 125.578125 L 326.671875 113.738281 C 325.632812 110.785156 324.5 107.859375 323.273438 104.960938 C 315.636719 86.902344 304.707031 70.683594 290.785156 56.761719 C 276.863281 42.835938 260.648438 31.902344 242.59375 24.265625 C 223.894531 16.359375 204.039062 12.347656 183.574219 12.347656 C 163.109375 12.347656 143.25 16.359375 124.554688 24.265625 C 106.5 31.902344 90.285156 42.835938 76.363281 56.761719 C 62.441406 70.683594 51.507812 86.902344 43.871094 104.960938 C 35.964844 123.65625 31.953125 143.519531 31.953125 163.984375 C 31.953125 184.453125 35.964844 204.3125 43.871094 223.011719 C 51.507812 241.070312 62.441406 257.285156 76.363281 271.210938 C 90.285156 285.132812 106.5 296.066406 124.554688 303.703125 C 126.699219 304.609375 128.855469 305.464844 131.027344 306.269531 L 112.347656 280.761719 " fill-opacity="1" fill-rule="nonzero"/></g><g clip-path="url(#703218970c)"><path fill="#2092d4" d="M 93.640625 238.910156 L 159.792969 238.910156 L 182.902344 271.847656 L 342.960938 111.023438 L 184.21875 362.601562 L 93.640625 238.910156 " fill-opacity="1" fill-rule="nonzero"/></g><path fill="#545454" d="M 138.628906 163.984375 C 151.191406 163.984375 161.414062 174.207031 161.414062 186.773438 C 161.414062 199.335938 151.191406 209.558594 138.628906 209.558594 C 126.066406 209.558594 115.84375 199.335938 115.84375 186.773438 C 115.84375 174.207031 126.066406 163.984375 138.628906 163.984375 Z M 164.800781 114.835938 C 164.738281 114.835938 164.675781 114.835938 164.617188 114.832031 C 160.84375 114.726562 157.480469 114.691406 153.976562 114.691406 C 148.171875 114.691406 141.976562 114.789062 132.878906 114.832031 C 77.398438 115.097656 72.304688 160.761719 71.835938 189.304688 C 71.761719 193.742188 75.335938 197.371094 79.773438 197.371094 L 101.179688 197.371094 C 105.796875 213.71875 120.808594 225.699219 138.628906 225.699219 C 156.449219 225.699219 171.460938 213.71875 176.078125 197.371094 L 243.4375 197.371094 L 259.5 181.234375 L 177.152344 181.234375 C 175.8125 171.835938 171.117188 163.519531 164.320312 157.539062 L 283.082031 157.539062 L 292.667969 147.90625 L 141.542969 147.90625 L 141.542969 147.957031 C 140.582031 147.882812 139.609375 147.847656 138.628906 147.847656 C 119.015625 147.847656 102.796875 162.359375 100.105469 181.234375 L 90.238281 181.234375 C 89.175781 181.234375 88.328125 180.335938 88.40625 179.277344 C 89.054688 170.316406 90.582031 160.773438 94.179688 152.65625 C 98.277344 143.410156 106.757812 131.097656 132.957031 130.972656 C 137.167969 130.953125 140.761719 130.921875 143.980469 130.890625 C 147.699219 130.859375 150.914062 130.832031 153.976562 130.832031 C 157.683594 130.832031 160.824219 130.875 164.171875 130.964844 C 164.378906 130.972656 164.589844 130.976562 164.800781 130.976562 C 176.785156 130.976562 185.171875 122.386719 194.882812 112.441406 C 205.484375 101.585938 217.484375 89.300781 233.332031 87.628906 L 287.921875 87.628906 C 283.699219 81.871094 279.011719 76.472656 273.914062 71.488281 L 232.566406 71.488281 C 196.386719 74.632812 178.160156 114.835938 164.800781 114.835938 " fill-opacity="1" fill-rule="nonzero"/></svg>